<?xml version="1.0" standalone="no"?>
<!DOCTYPE svg PUBLIC "-//W3C//DTD SVG 20010904//EN"
 "http://www.w3.org/TR/2001/REC-SVG-20010904/DTD/svg10.dtd">
<svg version="1.0" xmlns="http://www.w3.org/2000/svg"
 width="768.000000pt" height="768.000000pt" viewBox="0 0 768.000000 768.000000"
 preserveAspectRatio="xMidYMid meet">

<g transform="translate(0.000000,768.000000) scale(0.100000,-0.100000)"
fill="#000000" stroke="none">
<path d="M3283 7075 c-100 -28 -159 -79 -233 -204 l-41 -69 -120 -39 -120 -40
-47 22 c-186 86 -331 76 -449 -30 -59 -53 -95 -123 -119 -233 -15 -72 -22 -86
-48 -104 -17 -12 -62 -44 -100 -71 l-68 -50 -142 -1 c-127 -1 -145 -3 -186
-24 -60 -31 -132 -103 -161 -160 -22 -43 -24 -60 -25 -188 l-1 -142 -50 -68
c-27 -38 -59 -83 -71 -100 -18 -26 -32 -33 -104 -48 -110 -24 -180 -60 -233
-119 -106 -118 -116 -263 -30 -449 l22 -47 -40 -120 -39 -120 -69 -41 c-129
-77 -178 -134 -205 -243 -33 -125 -2 -228 105 -354 l61 -73 0 -121 0 -121 -54
-59 c-106 -118 -143 -226 -117 -350 24 -113 77 -173 252 -284 27 -17 36 -36
68 -135 l37 -115 -33 -78 c-48 -114 -59 -189 -38 -268 38 -153 132 -233 317
-274 l77 -17 72 -99 72 -98 1 -143 c1 -129 3 -147 24 -186 36 -67 98 -129 161
-159 53 -26 64 -28 192 -28 l136 0 98 -70 98 -70 23 -92 c38 -154 86 -222 197
-280 46 -25 63 -28 147 -28 86 0 103 3 185 37 l90 36 115 -38 115 -37 45 -74
c25 -41 66 -95 92 -121 80 -79 207 -112 317 -84 70 18 112 42 196 114 l60 52
123 0 123 0 63 -54 c126 -106 216 -138 331 -117 120 22 195 80 270 209 l44 74
118 39 118 39 85 -38 c78 -34 92 -37 180 -37 85 0 101 3 154 29 111 54 160
124 198 282 12 49 27 92 34 97 7 4 50 35 96 69 l83 62 140 1 c128 0 144 2 190
25 64 31 134 101 165 165 23 46 25 62 25 188 l0 138 70 98 70 97 88 21 c157
38 229 88 283 199 26 53 29 69 29 154 0 88 -3 101 -37 179 l-37 84 40 121 40
121 70 39 c127 72 189 152 210 273 20 116 -11 204 -117 329 l-54 63 0 123 0
123 52 60 c72 84 96 126 114 196 28 110 -5 237 -84 317 -26 26 -80 67 -121 92
l-74 45 -38 115 -37 115 36 90 c34 82 37 99 37 185 0 84 -3 101 -28 147 -58
111 -139 167 -289 200 l-79 17 -72 99 -72 99 0 137 c0 128 -2 139 -28 192 -30
63 -92 125 -159 161 -39 21 -57 23 -186 24 l-143 1 -98 71 -99 72 -17 78 c-41
185 -121 279 -274 317 -79 21 -154 10 -268 -38 l-78 -33 -115 37 c-83 27 -119
44 -131 61 -9 13 -37 55 -62 95 -79 122 -159 167 -302 168 -84 0 -94 -2 -152
-34 -34 -18 -89 -58 -122 -87 l-59 -54 -121 0 -121 0 -73 61 c-39 34 -96 73
-126 87 -67 31 -164 38 -238 17z m142 -264 c17 -10 57 -42 90 -71 97 -86 111
-90 324 -90 217 0 227 3 341 105 113 101 154 98 222 -19 56 -96 84 -132 122
-155 17 -10 102 -42 189 -71 187 -62 219 -63 345 -6 44 20 95 36 115 36 48 0
82 -41 97 -117 30 -149 56 -196 143 -254 34 -23 89 -63 123 -90 33 -26 76 -54
94 -64 43 -22 118 -29 206 -18 84 11 128 1 150 -32 13 -20 15 -43 9 -143 -9
-146 -2 -171 75 -272 31 -41 75 -103 98 -137 53 -79 101 -107 223 -133 78 -17
99 -26 122 -50 36 -40 34 -66 -10 -164 -56 -123 -56 -168 1 -338 25 -75 46
-143 46 -150 1 -34 71 -105 150 -152 108 -64 120 -77 120 -126 0 -34 -8 -48
-65 -112 -103 -114 -106 -123 -106 -347 0 -213 5 -231 80 -314 80 -90 91 -108
91 -146 0 -45 -27 -74 -110 -117 -75 -40 -146 -111 -160 -162 -6 -23 -28 -94
-50 -159 -53 -156 -53 -196 0 -319 22 -52 40 -105 40 -120 0 -36 -48 -81 -96
-89 -152 -26 -215 -57 -267 -132 -18 -26 -61 -85 -96 -132 -89 -118 -94 -138
-86 -291 l7 -125 -27 -25 c-26 -24 -31 -25 -173 -25 -169 0 -140 11 -332 -130
-67 -49 -133 -105 -146 -125 -22 -33 -44 -106 -59 -194 -8 -48 -53 -96 -89
-96 -15 0 -68 18 -120 40 -127 54 -156 53 -360 -12 -149 -48 -164 -55 -206
-98 -25 -25 -58 -70 -74 -100 -43 -83 -72 -110 -117 -110 -32 0 -50 10 -115
66 -124 105 -124 105 -345 105 -224 0 -233 -3 -347 -106 -64 -57 -78 -65 -112
-65 -49 0 -62 12 -126 120 -47 79 -118 149 -152 150 -7 0 -75 21 -150 46 -170
57 -215 57 -338 1 -98 -44 -124 -46 -164 -9 -24 22 -33 43 -50 121 -24 114
-55 170 -118 212 -26 18 -87 63 -137 99 -118 88 -139 94 -287 85 -100 -6 -123
-4 -143 9 -33 22 -43 66 -32 150 11 88 4 163 -18 206 -10 18 -38 61 -64 94
-27 34 -67 89 -90 123 -58 87 -105 113 -254 143 -76 15 -117 49 -117 97 0 20
16 71 36 115 56 125 56 157 -5 344 -29 88 -61 173 -72 190 -23 38 -59 66 -155
122 -117 68 -120 109 -19 222 102 114 105 124 105 341 0 215 -4 227 -94 329
-120 136 -114 172 42 256 63 33 125 92 140 131 5 16 31 93 57 173 56 172 56
204 2 328 -62 139 -45 189 69 212 102 20 158 38 191 63 29 22 142 169 218 285
32 48 36 87 26 259 -6 113 27 134 186 119 124 -11 162 -1 250 67 38 28 99 73
137 99 103 71 124 107 156 272 23 114 73 131 212 69 123 -54 155 -54 328 2 80
26 157 52 172 57 38 14 92 69 124 126 82 144 112 165 179 123z"/>
<path d="M3358 6743 c-8 -10 -28 -42 -43 -71 -35 -66 -85 -124 -129 -151 -18
-12 -111 -46 -207 -77 -157 -50 -180 -55 -233 -50 -33 3 -84 18 -115 32 -97
45 -128 54 -139 41 -6 -7 -16 -41 -22 -77 -15 -81 -41 -152 -73 -193 -28 -37
-291 -231 -341 -252 -53 -23 -127 -28 -210 -15 -107 16 -112 11 -96 -96 21
-136 0 -213 -87 -325 -28 -35 -68 -92 -91 -126 -71 -104 -141 -147 -283 -173
-35 -7 -69 -16 -76 -22 -13 -11 -4 -42 43 -143 45 -98 41 -164 -25 -364 -72
-216 -81 -228 -272 -346 -18 -11 -34 -25 -36 -31 -2 -7 24 -43 58 -80 34 -38
73 -94 88 -124 25 -54 26 -59 26 -260 0 -242 -2 -251 -110 -373 -37 -43 -65
-84 -62 -91 3 -7 36 -30 73 -51 77 -43 148 -105 170 -147 28 -54 124 -363 124
-398 0 -48 -16 -102 -57 -193 -23 -51 -32 -82 -25 -89 5 -5 48 -18 95 -28 147
-32 196 -66 292 -205 27 -38 64 -88 82 -111 18 -22 43 -63 55 -90 22 -48 25
-100 15 -274 l-2 -35 120 3 c140 4 205 -13 277 -71 24 -19 82 -62 129 -95 137
-97 165 -139 197 -292 13 -66 21 -86 36 -88 10 -2 55 13 100 33 117 54 187 58
304 17 48 -17 126 -43 174 -57 70 -21 97 -35 138 -72 28 -25 62 -66 77 -92 44
-79 73 -121 82 -121 5 0 41 29 80 64 121 109 129 111 381 111 214 0 215 0 266
-27 27 -14 80 -54 117 -87 37 -34 72 -61 77 -61 5 0 28 33 51 73 89 152 114
171 337 242 212 69 248 70 383 11 102 -44 117 -45 125 -8 43 199 77 266 163
321 25 17 89 62 141 101 124 93 164 105 317 95 l115 -7 -7 115 c-10 153 2 193
95 317 39 52 84 116 101 141 55 86 122 120 322 163 36 8 35 23 -9 125 -59 136
-58 172 10 381 32 96 64 185 71 197 28 43 90 94 167 138 43 25 78 50 78 55 0
5 -27 40 -61 77 -33 37 -73 90 -87 117 -27 51 -27 52 -27 266 0 252 2 260 111
381 35 39 64 75 64 80 0 9 -42 38 -121 82 -26 15 -67 49 -92 77 -37 41 -51 68
-72 138 -14 48 -40 126 -57 174 -41 117 -37 187 17 304 20 45 35 90 33 100 -2
15 -22 23 -92 37 -159 33 -180 50 -337 262 -108 146 -122 184 -117 340 l3 120
-35 -2 c-169 -10 -226 -7 -270 13 -46 21 -214 140 -299 211 -53 45 -95 129
-111 223 -18 107 -22 109 -116 67 -93 -41 -146 -57 -194 -57 -35 0 -347 97
-400 125 -40 21 -103 94 -145 169 -21 37 -44 70 -51 73 -7 3 -48 -25 -91 -62
-122 -108 -131 -110 -373 -110 -201 0 -206 1 -260 26 -30 15 -86 54 -123 88
-37 33 -72 61 -76 61 -4 0 -15 -8 -23 -17z m240 -675 c9 -9 12 -252 12 -1030
l0 -1018 -85 0 -85 0 0 1018 c0 778 3 1021 12 1030 7 7 39 12 73 12 34 0 66
-5 73 -12z m630 0 c9 -9 12 -252 12 -1030 l0 -1018 -85 0 -85 0 0 1018 c0 778
3 1021 12 1030 7 7 39 12 73 12 34 0 66 -5 73 -12z m-308 -367 c7 -13 10 -297
10 -850 l0 -831 -90 0 -90 0 0 838 c0 638 3 841 12 850 7 7 40 12 80 12 56 0
69 -3 78 -19z m-632 -233 c9 -9 12 -185 12 -730 l0 -718 -90 0 -90 0 0 711 c0
470 3 717 10 730 9 16 22 19 78 19 40 0 73 -5 80 -12z m1260 -720 l2 -728 -85
0 -85 0 0 718 c0 558 3 721 12 730 9 9 37 12 83 10 l70 -3 3 -727z m-1618
-1038 c88 -14 199 -70 260 -131 163 -163 167 -427 8 -595 -59 -63 -109 -95
-190 -123 -233 -80 -505 21 -600 224 -40 86 -53 171 -40 252 31 185 169 327
356 368 76 17 123 18 206 5z m1096 -21 c101 -38 184 -104 184 -147 0 -21 -107
-121 -139 -129 -16 -4 -36 1 -55 12 -73 43 -93 50 -151 50 -84 0 -143 -35
-179 -107 -15 -30 -26 -69 -26 -93 0 -24 11 -63 26 -93 36 -72 95 -107 179
-107 58 0 78 7 151 50 19 11 39 16 55 12 32 -8 139 -108 139 -130 0 -59 -153
-150 -285 -169 -138 -19 -287 24 -388 112 -192 169 -195 474 -7 643 130 117
334 156 496 96z m1694 6 c20 -11 40 -37 64 -88 19 -39 102 -213 185 -386 83
-173 151 -322 151 -331 0 -33 -22 -40 -134 -40 -61 0 -116 4 -123 8 -7 4 -24
33 -37 65 l-26 57 -145 0 -145 0 -26 -57 c-13 -32 -30 -61 -37 -65 -7 -4 -59
-8 -118 -8 -106 0 -129 7 -129 39 0 8 84 190 187 403 145 304 192 392 212 403
34 19 85 19 121 0z m-3635 -16 c123 -38 195 -133 195 -259 0 -41 -7 -79 -19
-105 -19 -43 -95 -119 -129 -129 -20 -7 -19 -10 19 -67 38 -57 42 -59 73 -54
21 4 36 2 43 -7 18 -23 55 -147 49 -166 -13 -41 -132 -72 -204 -52 -63 16
-101 57 -170 178 -61 108 -74 122 -113 122 -18 0 -19 -8 -19 -125 0 -163 -2
-165 -133 -165 -145 0 -132 -42 -132 425 0 381 1 397 19 411 16 11 65 14 237
14 191 0 225 -2 284 -21z m2467 4 c16 -14 18 -33 18 -160 l0 -143 140 0 140 0
0 138 c0 183 -1 182 129 182 68 0 103 -4 117 -14 18 -14 19 -30 19 -411 0
-467 13 -425 -132 -425 -133 0 -133 0 -133 180 l0 141 -137 -3 -138 -3 -3
-140 c-3 -178 -1 -175 -130 -175 -75 0 -99 4 -114 17 -17 15 -18 41 -18 406 0
349 2 392 17 409 23 25 197 27 225 1z m1348 -1188 c0 -32 -4 -37 -50 -60 -27
-14 -52 -25 -55 -25 -8 0 -6 43 3 56 6 9 91 64 100 64 1 0 2 -16 2 -35z
m-4050 5 c41 -21 60 -46 60 -78 0 -19 -4 -18 -55 10 -47 25 -55 34 -55 59 0
35 0 35 50 9z m200 -13 c0 -29 -5 -36 -45 -55 -25 -12 -48 -22 -51 -22 -3 0
-4 15 -2 32 2 26 11 37 43 55 52 30 55 29 55 -10z m874 12 c47 -37 26 -53 -31
-24 -39 19 -83 6 -83 -25 0 -16 15 -28 65 -50 70 -31 92 -60 81 -104 -7 -29
-52 -56 -91 -56 -34 0 -92 27 -99 47 -11 27 5 34 34 13 33 -23 92 -26 110 -5
22 26 7 49 -45 68 -84 31 -111 69 -84 118 22 41 101 51 143 18z m1792 5 c74
-35 99 -143 48 -204 -53 -62 -118 -76 -184 -39 -47 27 -70 66 -70 119 0 106
107 171 206 124z m545 -110 c32 -69 59 -129 59 -135 0 -21 -38 -8 -44 16 -6
24 -10 25 -80 25 -68 0 -74 -2 -84 -25 -7 -14 -20 -25 -31 -25 -18 0 -16 8 23
93 58 124 85 177 92 177 3 0 32 -57 65 -126z m422 110 c50 -25 67 -45 67 -75
l0 -27 -55 30 c-47 25 -55 34 -55 59 0 34 1 34 43 13z m-3116 -14 c41 -25 55
-52 55 -110 0 -94 -45 -130 -164 -130 l-78 0 0 130 0 130 78 0 c59 0 85 -5
109 -20z m143 -110 c0 -109 -2 -130 -15 -130 -13 0 -15 21 -15 130 0 109 2
130 15 130 13 0 15 -21 15 -130z m478 118 c-3 -7 -23 -14 -46 -16 l-42 -3 0
-115 c0 -107 -1 -114 -20 -114 -19 0 -20 7 -20 114 l0 115 -42 3 c-23 2 -43 9
-46 16 -3 9 23 12 108 12 85 0 111 -3 108 -12z m212 -8 c30 -30 27 -85 -6
-115 l-26 -24 26 -45 c31 -53 31 -56 8 -56 -11 0 -29 20 -48 53 -25 44 -35 52
-62 55 l-32 3 0 -55 c0 -49 -2 -56 -20 -56 -19 0 -20 7 -20 130 l0 130 80 0
c67 0 83 -3 100 -20z m110 -111 c0 -119 -2 -130 -17 -127 -16 3 -18 18 -21
118 -3 124 0 140 23 140 13 0 15 -20 15 -131z m244 98 c20 -27 20 -29 4 -58
-17 -28 -17 -30 2 -49 29 -29 26 -74 -6 -99 -22 -17 -41 -21 -100 -21 l-74 0
0 130 0 131 76 -3 c71 -3 79 -5 98 -31z m116 -62 c0 -110 14 -135 75 -135 61
0 75 25 75 135 0 88 1 95 20 95 18 0 20 -7 20 -85 0 -103 -16 -147 -61 -170
-44 -23 -104 -14 -138 19 -24 25 -26 34 -29 131 -4 101 -3 105 17 105 20 0 21
-5 21 -95z m290 -35 c0 -123 -1 -130 -20 -130 -19 0 -20 7 -20 130 0 123 1
130 20 130 19 0 20 -7 20 -130z m250 115 c38 -19 60 -63 60 -115 0 -93 -47
-130 -165 -130 l-75 0 0 130 0 130 75 0 c48 0 87 -6 105 -15z m610 -5 c29 -29
26 -78 -6 -111 l-26 -28 26 -47 c31 -56 31 -54 7 -54 -13 0 -29 17 -48 53 -24
44 -33 52 -60 55 l-33 3 0 -55 c0 -49 -2 -56 -20 -56 -19 0 -20 7 -20 130 l0
130 80 0 c67 0 83 -3 100 -20z m-3116 -135 c7 -20 8 -55 1 -55 -3 0 -27 12
-55 28 -44 24 -50 31 -50 60 l0 32 49 -24 c27 -14 51 -32 55 -41z m146 30 c0
-32 -4 -37 -50 -60 l-50 -25 0 28 c0 16 8 36 18 44 14 13 70 46 80 48 1 0 2
-16 2 -35z m3694 -30 c8 -23 8 -57 -1 -53 -93 44 -103 52 -103 85 l0 33 49
-24 c27 -14 51 -32 55 -41z m156 32 c0 -30 -5 -35 -56 -60 l-55 -27 3 32 c3
28 11 37 53 60 28 15 51 28 53 28 1 0 2 -15 2 -33z m-4050 -97 c22 -11 44 -29
50 -40 10 -18 8 -20 -22 -20 -36 0 -78 33 -78 62 0 23 2 22 50 -2z m200 0 c0
-29 -36 -60 -70 -60 -47 0 -39 20 25 60 39 24 45 24 45 0z m3640 0 c22 -11 44
-29 50 -40 10 -18 8 -20 -20 -20 -33 0 -80 38 -80 65 0 19 3 19 50 -5z m205
-2 c-10 -33 -43 -58 -76 -58 -47 0 -35 26 26 58 51 27 58 27 50 0z m-3167
-215 c-3 -15 -16 -19 -71 -21 l-67 -3 0 -39 0 -39 55 -3 c30 -2 55 -7 55 -13
0 -5 -25 -11 -55 -13 l-55 -3 0 -44 0 -45 70 0 c56 0 70 -3 70 -15 0 -13 -14
-15 -87 -13 l-88 3 -3 119 c-1 66 0 126 2 133 4 9 30 13 91 13 77 0 86 -2 83
-17z m314 -114 c31 -68 57 -127 58 -131 0 -5 -8 -8 -19 -8 -11 0 -23 12 -31
30 -12 29 -14 30 -80 30 -66 0 -68 -1 -80 -30 -8 -19 -20 -30 -32 -30 -24 0
-27 -10 47 148 32 67 63 121 69 119 5 -2 36 -59 68 -128z m246 114 c-2 -13
-14 -19 -40 -21 l-37 -3 -3 -112 c-3 -97 -5 -112 -20 -115 -16 -3 -18 7 -18
112 l0 116 -39 0 c-40 0 -57 11 -46 30 3 6 50 10 106 10 90 0 100 -2 97 -17z
m177 -97 c69 -149 71 -156 47 -156 -13 0 -24 10 -31 30 -10 29 -11 30 -79 30
-68 0 -70 -1 -82 -30 -8 -19 -20 -30 -32 -30 -12 0 -18 5 -15 13 29 71 122
257 129 257 5 0 33 -51 63 -114z m305 89 c11 -10 20 -24 20 -32 0 -17 -24 -17
-40 2 -7 8 -27 17 -45 21 -101 19 -162 -114 -83 -181 36 -30 81 -32 125 -5 37
22 55 9 27 -21 -46 -51 -141 -43 -193 16 -25 29 -31 44 -31 83 0 59 16 90 60
120 29 20 44 23 87 20 32 -3 61 -12 73 -23z m234 -97 c32 -68 60 -129 63 -135
3 -8 -3 -13 -15 -13 -12 0 -24 11 -32 30 -12 29 -14 30 -81 30 -66 0 -69 -1
-84 -30 -18 -34 -50 -43 -40 -10 14 45 115 250 123 250 5 0 35 -55 66 -122z
m270 108 c52 -22 76 -60 76 -122 0 -48 -4 -59 -34 -92 -34 -36 -36 -37 -120
-41 l-86 -3 0 129 c0 71 3 133 7 136 12 12 123 7 157 -7z m166 -121 c0 -113
-2 -135 -15 -135 -13 0 -15 22 -15 135 0 113 2 135 15 135 13 0 15 -22 15
-135z m211 119 c17 -8 28 -21 26 -27 -5 -14 -21 -13 -65 4 -40 16 -67 3 -67
-32 0 -19 10 -27 54 -44 100 -38 119 -109 39 -148 -30 -15 -44 -16 -76 -8 -47
13 -81 46 -64 63 8 8 18 5 38 -11 44 -34 114 -22 114 20 0 15 -15 27 -57 45
-74 33 -93 50 -93 85 0 58 84 88 151 53z m257 -1 c-2 -13 -14 -19 -40 -21
l-37 -3 -3 -112 c-3 -97 -5 -112 -20 -115 -16 -3 -18 7 -18 112 l0 116 -39 0
c-40 0 -57 11 -46 30 3 6 50 10 106 10 90 0 100 -2 97 -17z m183 -109 c32 -69
59 -129 59 -135 0 -21 -31 -7 -45 21 -15 29 -18 30 -84 30 -67 0 -69 -1 -81
-30 -8 -19 -20 -30 -32 -30 -10 0 -17 3 -15 8 2 4 30 64 62 135 32 70 63 127
68 127 4 0 35 -57 68 -126z"/>
<path d="M2770 3467 c-19 -6 -53 -30 -76 -53 -145 -144 -4 -382 198 -334 38
10 62 24 94 56 48 47 59 84 52 170 -8 93 -81 160 -184 169 -27 2 -65 -1 -84
-8z"/>
<path d="M5617 3254 c-21 -53 -36 -99 -34 -101 3 -2 38 -3 79 -1 l75 3 -36 97
c-20 54 -38 98 -41 98 -3 0 -22 -43 -43 -96z"/>
<path d="M1810 3406 l0 -86 75 0 c67 0 79 3 100 25 32 31 32 75 1 112 -21 25
-31 28 -100 31 l-76 4 0 -86z"/>
<path d="M4576 2454 c-21 -21 -26 -36 -26 -74 0 -42 4 -52 31 -74 70 -60 169
-15 169 77 0 63 -35 97 -100 97 -38 0 -53 -5 -74 -26z"/>
<path d="M5168 2400 l-25 -55 45 -3 c24 -2 47 -1 50 3 3 3 -6 29 -20 58 l-26
52 -24 -55z"/>
<path d="M2420 2380 l0 -100 45 0 c62 0 101 22 115 65 26 77 -23 135 -115 135
l-45 0 0 -100z"/>
<path d="M3260 2435 l0 -45 48 0 c52 0 72 12 72 45 0 33 -20 45 -72 45 l-48 0
0 -45z"/>
<path d="M3620 2440 l0 -41 46 3 c31 2 51 9 58 21 19 29 -4 52 -58 55 l-46 3
0 -41z"/>
<path d="M3620 2325 l0 -45 48 0 c53 0 72 12 72 47 0 28 -27 43 -79 43 l-41 0
0 -45z"/>
<path d="M4270 2380 l0 -100 45 0 c92 0 141 58 115 135 -14 43 -53 65 -115 65
l-45 0 0 -100z"/>
<path d="M4880 2435 l0 -45 48 0 c52 0 72 12 72 45 0 33 -20 45 -72 45 l-48 0
0 -45z"/>
<path d="M2944 1973 c-11 -27 -20 -51 -22 -55 -2 -5 20 -8 48 -8 38 0 51 3 47
13 -31 77 -40 97 -47 97 -4 0 -16 -21 -26 -47z"/>
<path d="M3375 1973 c-11 -26 -21 -51 -23 -55 -2 -4 19 -8 47 -8 28 0 51 3 51
6 0 12 -43 104 -49 104 -3 0 -15 -21 -26 -47z"/>
<path d="M3912 1975 c-12 -25 -22 -50 -22 -55 0 -6 23 -10 50 -10 28 0 50 2
50 5 0 7 -50 105 -53 105 -2 0 -13 -20 -25 -45z"/>
<path d="M4150 1949 l0 -101 55 4 c89 8 132 68 101 143 -18 42 -42 55 -105 55
l-51 0 0 -101z"/>
<path d="M4996 1970 l-26 -55 46 -3 c25 -2 49 -1 52 3 3 3 -6 29 -20 58 l-26
52 -26 -55z"/>
</g>
</svg>
